<mxfile host="app.diagrams.net" agent="Mozilla/5.0 (X11; Linux x86_64) AppleWebKit/537.36 (KHTML, like Gecko) Chrome/127.0.0.0 Safari/537.36 OPR/113.0.0.0" version="24.8.4">
  <diagram name="Page-1" id="sMkQ1aCVr5ubChrugkGW">
    <mxGraphModel dx="2870" dy="1139" grid="1" gridSize="10" guides="1" tooltips="1" connect="1" arrows="1" fold="1" page="1" pageScale="1" pageWidth="850" pageHeight="1100" math="0" shadow="0">
      <root>
        <mxCell id="0" />
        <mxCell id="1" parent="0" />
        <mxCell id="8CA8Mme0GAgH_YUFHKgr-19" value="" style="rounded=0;whiteSpace=wrap;html=1;fillColor=#e1d5e7;strokeColor=#9673a6;" vertex="1" parent="1">
          <mxGeometry x="-210" y="40" width="1120" height="460" as="geometry" />
        </mxCell>
        <mxCell id="8CA8Mme0GAgH_YUFHKgr-12" value="" style="rounded=0;whiteSpace=wrap;html=1;fillColor=#d5e8d4;strokeColor=#82b366;" vertex="1" parent="1">
          <mxGeometry x="-190" y="60" width="900" height="420" as="geometry" />
        </mxCell>
        <mxCell id="8CA8Mme0GAgH_YUFHKgr-11" value="" style="rounded=1;whiteSpace=wrap;html=1;fillColor=#fff2cc;strokeColor=#d6b656;" vertex="1" parent="1">
          <mxGeometry x="425" y="285" width="200" height="130" as="geometry" />
        </mxCell>
        <mxCell id="8CA8Mme0GAgH_YUFHKgr-10" value="" style="rounded=1;whiteSpace=wrap;html=1;fillColor=#fff2cc;strokeColor=#d6b656;" vertex="1" parent="1">
          <mxGeometry x="150" y="205" width="200" height="130" as="geometry" />
        </mxCell>
        <mxCell id="8CA8Mme0GAgH_YUFHKgr-9" value="" style="rounded=1;whiteSpace=wrap;html=1;fillColor=#fff2cc;strokeColor=#d6b656;" vertex="1" parent="1">
          <mxGeometry x="-120" y="120" width="200" height="130" as="geometry" />
        </mxCell>
        <mxCell id="8CA8Mme0GAgH_YUFHKgr-1" value="cron" style="rounded=1;whiteSpace=wrap;html=1;fontStyle=1" vertex="1" parent="1">
          <mxGeometry x="-80" y="160" width="120" height="60" as="geometry" />
        </mxCell>
        <mxCell id="8CA8Mme0GAgH_YUFHKgr-2" value="service" style="rounded=1;whiteSpace=wrap;html=1;strokeColor=default;align=center;verticalAlign=middle;fontFamily=Helvetica;fontSize=12;fontColor=default;fillColor=default;fontStyle=1" vertex="1" parent="1">
          <mxGeometry x="190" y="240" width="120" height="60" as="geometry" />
        </mxCell>
        <mxCell id="8CA8Mme0GAgH_YUFHKgr-3" value="repository" style="rounded=1;whiteSpace=wrap;html=1;strokeColor=default;align=center;verticalAlign=middle;fontFamily=Helvetica;fontSize=12;fontColor=default;fillColor=default;fontStyle=1" vertex="1" parent="1">
          <mxGeometry x="465" y="320" width="120" height="60" as="geometry" />
        </mxCell>
        <mxCell id="8CA8Mme0GAgH_YUFHKgr-4" value="" style="endArrow=classic;html=1;rounded=0;exitX=1;exitY=0.5;exitDx=0;exitDy=0;entryX=0.5;entryY=0;entryDx=0;entryDy=0;" edge="1" parent="1" source="8CA8Mme0GAgH_YUFHKgr-1" target="8CA8Mme0GAgH_YUFHKgr-2">
          <mxGeometry width="50" height="50" relative="1" as="geometry">
            <mxPoint x="130" y="190" as="sourcePoint" />
            <mxPoint x="180" y="140" as="targetPoint" />
            <Array as="points">
              <mxPoint x="250" y="190" />
            </Array>
          </mxGeometry>
        </mxCell>
        <mxCell id="8CA8Mme0GAgH_YUFHKgr-5" value="" style="endArrow=classic;html=1;rounded=0;entryX=0.5;entryY=0;entryDx=0;entryDy=0;exitX=1;exitY=0.5;exitDx=0;exitDy=0;" edge="1" parent="1" source="8CA8Mme0GAgH_YUFHKgr-2" target="8CA8Mme0GAgH_YUFHKgr-3">
          <mxGeometry width="50" height="50" relative="1" as="geometry">
            <mxPoint x="230" y="390" as="sourcePoint" />
            <mxPoint x="280" y="340" as="targetPoint" />
            <Array as="points">
              <mxPoint x="525" y="270" />
            </Array>
          </mxGeometry>
        </mxCell>
        <mxCell id="8CA8Mme0GAgH_YUFHKgr-6" value="schedule" style="text;html=1;align=center;verticalAlign=middle;whiteSpace=wrap;rounded=0;fontStyle=1;fontFamily=Helvetica;fontSize=12;fontColor=default;" vertex="1" parent="1">
          <mxGeometry x="-50" y="260" width="60" height="30" as="geometry" />
        </mxCell>
        <mxCell id="8CA8Mme0GAgH_YUFHKgr-7" value="business" style="text;html=1;align=center;verticalAlign=middle;whiteSpace=wrap;rounded=0;fontStyle=1;fontFamily=Helvetica;fontSize=12;fontColor=default;" vertex="1" parent="1">
          <mxGeometry x="220" y="335" width="60" height="30" as="geometry" />
        </mxCell>
        <mxCell id="8CA8Mme0GAgH_YUFHKgr-8" value="infrastructure" style="text;html=1;align=center;verticalAlign=middle;whiteSpace=wrap;rounded=0;fontStyle=1;fontFamily=Helvetica;fontSize=12;fontColor=default;" vertex="1" parent="1">
          <mxGeometry x="490" y="415" width="80" height="30" as="geometry" />
        </mxCell>
        <mxCell id="8CA8Mme0GAgH_YUFHKgr-13" value="" style="rounded=0;whiteSpace=wrap;html=1;fillColor=#d5e8d4;strokeColor=#82b366;" vertex="1" parent="1">
          <mxGeometry x="720" y="60" width="170" height="420" as="geometry" />
        </mxCell>
        <mxCell id="8CA8Mme0GAgH_YUFHKgr-14" value="mysql" style="rounded=1;whiteSpace=wrap;html=1;strokeColor=default;align=center;verticalAlign=middle;fontFamily=Helvetica;fontSize=12;fontColor=default;fillColor=default;fontStyle=1" vertex="1" parent="1">
          <mxGeometry x="755" y="200" width="120" height="60" as="geometry" />
        </mxCell>
        <mxCell id="8CA8Mme0GAgH_YUFHKgr-15" value="mariadb" style="rounded=1;whiteSpace=wrap;html=1;strokeColor=default;align=center;verticalAlign=middle;fontFamily=Helvetica;fontSize=12;fontColor=default;fillColor=default;fontStyle=1" vertex="1" parent="1">
          <mxGeometry x="755" y="400" width="120" height="60" as="geometry" />
        </mxCell>
        <mxCell id="8CA8Mme0GAgH_YUFHKgr-16" value="" style="endArrow=classic;startArrow=classic;html=1;rounded=0;exitX=0.983;exitY=0.133;exitDx=0;exitDy=0;exitPerimeter=0;entryX=0;entryY=0.5;entryDx=0;entryDy=0;" edge="1" parent="1" source="8CA8Mme0GAgH_YUFHKgr-3" target="8CA8Mme0GAgH_YUFHKgr-14">
          <mxGeometry width="50" height="50" relative="1" as="geometry">
            <mxPoint x="625" y="364.99999999999994" as="sourcePoint" />
            <mxPoint x="755" y="123.95" as="targetPoint" />
            <Array as="points">
              <mxPoint x="690" y="330" />
              <mxPoint x="690" y="230" />
            </Array>
          </mxGeometry>
        </mxCell>
        <mxCell id="8CA8Mme0GAgH_YUFHKgr-18" style="edgeStyle=orthogonalEdgeStyle;rounded=0;orthogonalLoop=1;jettySize=auto;html=1;entryX=0;entryY=0.5;entryDx=0;entryDy=0;exitX=1;exitY=0.5;exitDx=0;exitDy=0;" edge="1" parent="1" source="8CA8Mme0GAgH_YUFHKgr-3" target="8CA8Mme0GAgH_YUFHKgr-15">
          <mxGeometry relative="1" as="geometry">
            <Array as="points">
              <mxPoint x="690" y="350" />
              <mxPoint x="690" y="430" />
            </Array>
          </mxGeometry>
        </mxCell>
        <mxCell id="8CA8Mme0GAgH_YUFHKgr-20" value="ciceroednilson@gmail.com" style="text;html=1;align=center;verticalAlign=middle;whiteSpace=wrap;rounded=0;fontStyle=1" vertex="1" parent="1">
          <mxGeometry x="-130" y="450" width="60" height="30" as="geometry" />
        </mxCell>
      </root>
    </mxGraphModel>
  </diagram>
</mxfile>
